<svg width="25" height="25" viewBox="0 0 25 25" fill="none" xmlns="http://www.w3.org/2000/svg">
<path fill-rule="evenodd" clip-rule="evenodd" d="M11.028 8.73874C11.028 10.3987 9.69341 11.7387 8.02767 11.7387C6.36193 11.7387 5.01729 10.3987 5.01729 8.73874C5.01729 7.07874 6.36193 5.73874 8.02767 5.73874C9.69341 5.73874 11.028 7.07874 11.028 8.73874ZM19.0557 8.73874C19.0557 10.3987 17.7211 11.7387 16.0554 11.7387C14.3896 11.7387 13.045 10.3987 13.045 8.73874C13.045 7.07874 14.3896 5.73874 16.0554 5.73874C17.7211 5.73874 19.0557 7.07874 19.0557 8.73874ZM8.02767 13.7387C5.68961 13.7387 1.00345 14.9087 1.00345 17.2387V18.7387C1.00345 19.2887 1.45501 19.7387 2.00691 19.7387H14.0484C14.6003 19.7387 15.0519 19.2887 15.0519 18.7387V17.2387C15.0519 14.9087 10.3657 13.7387 8.02767 13.7387ZM15.082 13.7887C15.4332 13.7587 15.7643 13.7387 16.0554 13.7387C18.3934 13.7387 23.0796 14.9087 23.0796 17.2387V18.7387C23.0796 19.2887 22.628 19.7387 22.0761 19.7387H16.8782C16.9886 19.4287 17.0588 19.0887 17.0588 18.7387V17.2387C17.0588 15.7687 16.2661 14.6587 15.1221 13.8287C15.1191 13.8257 15.1161 13.8218 15.1127 13.8175C15.1051 13.8075 15.096 13.7957 15.082 13.7887Z" fill="#808080"/>
</svg>
